PathFileType	4	(X/Y/Z)	./resultDataOpenSim/trcMotMarkerGrf/sub09/qtm-05-04.trc
DataRate	CameraRate	NumFrames	NumMarkers	Units	OrigDataRate	OrigDataStartFrame	OrigNumFrames
250.000000	250.000000	12	24	m	250.000000	319	636
Frame#	Time	L.Toe.Tip			R.Toe.Tip			L.Ankle.Lat			R.Ankle.Lat			L.Ankle.Med			R.Ankle.Med			L.Heel			R.Heel			L.Knee.Lat			R.Knee.Lat			L.Knee.Med			R.Knee.Med			L.Thigh.Upper			R.Thigh.Upper			L.ASIS			R.ASIS			V.Sacral			L.Acromium			R.Acromium			C7			L.Elbow			R.Elbow			L.Wrist.Lat			R.Wrist.Lat
		X1	Y1	Z1	X2	Y2	Z2	X3	Y3	Z3	X4	Y4	Z4	X5	Y5	Z5	X6	Y6	Z6	X7	Y7	Z7	X8	Y8	Z8	X9	Y9	Z9	X10	Y10	Z10	X11	Y11	Z11	X12	Y12	Z12	X13	Y13	Z13	X14	Y14	Z14	X15	Y15	Z15	X16	Y16	Z16	X17	Y17	Z17	X18	Y18	Z18	X19	Y19	Z19	X20	Y20	Z20	X21	Y21	Z21	X22	Y22	Z22	X23	Y23	Z23	X24	Y24	Z24

319	1.272	0.10024417	-0.056473986	0.028243028	0.98788846	0.046466036	0.12056346	0.034681534	0.072095513	-0.05568888	0.83934908	0.052850604	0.1528065	0.058929938	0.077352229	0.038906846	0.84682364	0.094059435	0.061877939	-0.035858367	0.096557073	-0.017941095	0.77341044	0.03004505	0.10196613	0.31162695	0.39224727	-0.078763551	0.78974541	0.50869642	0.20701335	0.31351582	0.37981931	0.046335987	0.7755446	0.49115456	0.083116003	0.45973461	0.77578665	-0.097966078	0.52044327	0.80522465	0.2719853	NaN	NaN	NaN	0.58597605	0.88066112	0.18572944	0.4150719	0.92554124	0.076621763	0.60639901	1.3137027	-0.091715436	0.56401127	1.3254523	0.23577158	0.51515592	1.3702252	0.063319669	0.51437547	0.94366608	-0.15346602	0.38522323	1.0133629	0.30423619	0.76177499	0.83827116	-0.10651957	0.45680795	0.7580493	0.36801284
320	1.276	0.10174099	-0.055331412	0.02771843	0.98901865	0.044866014	0.11955018	0.039604131	0.075264542	-0.056477688	0.840558	0.05259265	0.15231357	0.06457456	0.079991563	0.037966938	0.84796091	0.093493651	0.061310132	-0.029895624	0.10153861	-0.018316961	0.77400712	0.030433246	0.1018655	0.32172811	0.39139337	-0.079479317	0.79559851	0.50847224	0.20744899	0.3215723	0.37764306	0.046409932	0.78128762	0.49184819	0.083337501	0.46720691	0.7754478	-0.097412908	0.52745527	0.80693327	0.27247386	NaN	NaN	NaN	0.59307114	0.88198249	0.1860986	0.42160812	0.92613743	0.076760035	0.61323577	1.3145213	-0.091059312	0.57036914	1.326046	0.23635037	0.52144602	1.3707603	0.063805849	0.52014804	0.94502292	-0.15315588	0.39208069	1.0133919	0.3044234	0.76636734	0.83680343	-0.10633186	0.4651863	0.75830913	0.36822674
321	1.28	0.10342722	-0.054015831	0.0271539	0.98988195	0.043767974	0.11846643	0.044781292	0.078724279	-0.057049508	0.84160789	0.052507523	0.15183952	0.070457637	0.082785927	0.037276696	0.84879021	0.092931878	0.06070452	-0.023646483	0.10675489	-0.018428127	0.7744714	0.030711954	0.1017579	0.33225085	0.3904037	-0.080246623	0.8011907	0.50799193	0.20777573	0.33007593	0.37590229	0.046464432	0.78690278	0.49225059	0.083493656	0.47461464	0.77516192	-0.096902782	0.53444111	0.80858274	0.27294679	NaN	NaN	NaN	0.6000539	0.88332767	0.18642497	0.42849981	0.92679598	0.076946155	0.62005591	1.3153612	-0.090393331	0.57667133	1.3266861	0.23689963	0.52774549	1.371374	0.06429035	0.52590921	0.94650352	-0.15299718	0.39902761	1.0134244	0.30467624	0.77088068	0.83531134	-0.10615105	0.47359181	0.75861433	0.36842637
322	1.284	0.10527152	-0.052538246	0.026562115	0.99051566	0.042979969	0.11746682	0.050256826	0.082462273	-0.057460831	0.8424138	0.052554041	0.15144137	0.076570524	0.085721027	0.036772232	0.84935511	0.092426612	0.060144711	-0.017040766	0.11223246	-0.018339053	0.77481911	0.030900566	0.10169233	0.3430393	0.38934514	-0.081098216	0.80659653	0.50738249	0.20794993	0.33932391	0.37474541	0.046475357	0.79244239	0.49240892	0.083537702	0.48195381	0.77495892	-0.096420754	0.54136188	0.81014177	0.27343553	NaN	NaN	NaN	0.60691369	0.88466531	0.18674701	0.4354288	0.92761149	0.076592361	0.62684284	1.3162196	-0.089725922	0.58292252	1.3273669	0.23742561	0.53405734	1.3720757	0.064785783	0.53167401	0.94803763	-0.1528878	0.40609559	1.0134634	0.3050139	0.7753129	0.83379156	-0.10597778	0.48200838	0.75895174	0.36859808
323	1.288	0.10727098	-0.050908045	0.025958735	0.99103404	0.042352753	0.11668536	0.056068667	0.086453623	-0.057731753	0.84297792	0.052654055	0.15110298	0.082923583	0.088784019	0.036378235	0.8497657	0.092003014	0.059654962	-0.010053138	0.11795787	-0.018102086	0.77509958	0.03103313	0.10164616	0.35398962	0.3883093	-0.082055945	0.81187751	0.50673864	0.20801818	0.34932711	0.37409008	0.04643249	0.79795875	0.49239686	0.083468875	0.48921756	0.77485611	-0.095893153	0.54818904	0.81158734	0.27395979	NaN	NaN	NaN	0.61364657	0.88595889	0.18710117	0.4422534	0.9285641	0.075839998	0.63357743	1.3170928	-0.089068016	0.58912678	1.3280825	0.2379309	0.54037172	1.3728494	0.065286926	0.53745035	0.94953658	-0.15270411	0.41321469	1.0135233	0.30538451	0.77966772	0.83224055	-0.10581594	0.490443	0.75931742	0.36874497
324	1.292	0.10943055	-0.049131311	0.02533986	0.99152724	0.041824774	0.11618377	0.062207934	0.09067427	-0.057846775	0.84337767	0.052738251	0.15078908	0.0895441	0.091985418	0.036079527	0.85014254	0.091662173	0.059225913	-0.0027075655	0.12390046	-0.017737324	0.77535905	0.031140701	0.10155891	0.36498824	0.3873634	-0.083018894	0.81708405	0.50610867	0.20805803	0.35995718	0.37377137	0.046337701	0.80348339	0.49229207	0.08332091	0.49640677	0.77486911	-0.095218275	0.55490121	0.81291374	0.27451804	NaN	NaN	NaN	0.62024929	0.88718381	0.18751308	0.44902778	0.92953824	0.075339092	0.64024215	1.3179823	-0.088427962	0.59528471	1.3288366	0.23841071	0.54666471	1.3736765	0.065770337	0.54323445	0.95097149	-0.15241568	0.42031703	1.0136208	0.30574076	0.78394992	0.83066529	-0.10567027	0.49891936	0.75972297	0.36888297
325	1.296	0.11174057	-0.047195373	0.02468387	0.99200169	0.041388203	0.11593486	0.068615304	0.09509269	-0.057778755	0.84371076	0.052771276	0.15049049	0.096436307	0.095345593	0.03593286	0.85057071	0.091397812	0.058852149	0.0049523258	0.13004061	-0.0172381	0.77561041	0.031240252	0.10140858	0.37599135	0.38651755	-0.08384153	0.82225859	0.50552853	0.20812276	0.3710352	0.37363612	0.046207261	0.80899793	0.49214848	0.083137188	0.50353367	0.77501703	-0.094331893	0.56148633	0.81413178	0.27509549	NaN	NaN	NaN	0.62672181	0.88833476	0.1879988	0.45579008	0.93047071	0.075474654	0.64682285	1.318897	-0.087809965	0.60139563	1.3296411	0.23886095	0.55290588	1.3745606	0.066211551	0.54901887	0.95236708	-0.15207687	0.42737881	1.0137618	0.30607882	0.78815999	0.82908299	-0.10554528	0.50745727	0.76018997	0.3690261
326	1.3	0.11416504	-0.045053082	0.023960056	0.99241124	0.041042759	0.11583133	0.075240058	0.099676457	-0.057515153	0.8440401	0.052749588	0.15022182	0.1035848	0.098873045	0.035970064	0.85105796	0.091201026	0.058542659	0.012894629	0.1363733	-0.016594174	0.77582972	0.031332405	0.10123752	0.38714596	0.38573266	-0.08450547	0.82740757	0.50504691	0.2081935	0.38235757	0.37355999	0.046069636	0.8144293	0.49198776	0.082955682	0.51061842	0.7753042	-0.093304092	0.56794999	0.81525837	0.27568321	NaN	NaN	NaN	0.63306945	0.88941933	0.18856601	0.46248902	0.93140191	0.07615444	0.65331032	1.319849	-0.087216962	0.60745945	1.3305058	0.23928424	0.55907235	1.3755084	0.066605861	0.55480028	0.95375345	-0.15174227	0.43440968	1.013935	0.30644648	0.79229705	0.82751003	-0.10544378	0.51605286	0.76073245	0.36917382
327	1.304	0.11665596	-0.042628225	0.023131834	0.99271716	0.040781213	0.11573748	0.08209289	0.10442655	-0.057098047	0.84437302	0.052689383	0.1499988	0.11098956	0.10256488	0.036146188	0.8515314	0.091054795	0.058306901	0.021119045	0.1428977	-0.015804537	0.775982	0.031408402	0.10110969	0.39863867	0.38496118	-0.085104449	0.8324754	0.50469343	0.20818397	0.39376538	0.37339888	0.045933602	0.81968144	0.49181258	0.082801682	0.51768096	0.77569403	-0.092347224	0.57431342	0.81630597	0.27628556	NaN	NaN	NaN	0.63930246	0.89044991	0.18921481	0.46902605	0.93239863	0.077103444	0.65969953	1.3208452	-0.086654256	0.61347898	1.3314324	0.23968413	0.56515362	1.3765127	0.06696731	0.56057728	0.95515516	-0.15142913	0.4414351	1.0141218	0.30694148	0.79636279	0.82595292	-0.1053679	0.52467918	0.76134366	0.36930745
328	1.308	0.11918989	-0.039844364	0.022161508	0.99291197	0.040590119	0.11557653	0.089230322	0.10938323	-0.056620216	0.84468164	0.052613272	0.14982367	0.1186507	0.10641348	0.036404716	0.85189597	0.090939227	0.058146545	0.029655118	0.1496123	-0.01487604	0.77605029	0.031460434	0.10105726	0.41045242	0.38418598	-0.085675618	0.83738625	0.50444112	0.2080388	0.40536797	0.37288872	0.045704595	0.82467493	0.49162866	0.082686254	0.52472129	0.77612936	-0.091624823	0.58059462	0.81727845	0.27690645	NaN	NaN	NaN	0.64543806	0.89144498	0.18994076	0.47531027	0.93350392	0.078035493	0.66598617	1.3218856	-0.086128087	0.6194602	1.3324185	0.24006113	0.57114264	1.3775666	0.067309064	0.56634563	0.95658845	-0.15113087	0.44847097	1.0143197	0.30763878	0.80035896	0.82441131	-0.10532231	0.5333036	0.76200497	0.36940206
329	1.312	0.12178817	-0.036673245	0.021020434	0.99301112	0.040449567	0.11537919	0.096703743	0.11458787	-0.056166012	0.84493953	0.05253584	0.14968347	0.12654676	0.11040893	0.036720209	0.85210712	0.090846153	0.058058276	0.038539481	0.15651411	-0.013824933	0.77604369	0.031486352	0.10106823	0.42240703	0.38343	-0.086147956	0.84210063	0.50422952	0.20779745	0.417866	0.37156639	0.045088377	0.82937183	0.49146017	0.082612766	0.53170902	0.77658078	-0.091092192	0.58679338	0.81817904	0.27753517	NaN	NaN	NaN	0.65149584	0.8924326	0.19073478	0.48135342	0.93474302	0.078722199	0.67216491	1.3229703	-0.085641807	0.62540641	1.3334643	0.24041776	0.57703415	1.3786736	0.067637806	0.57210067	0.95804958	-0.1508374	0.45549286	1.0145506	0.30846508	0.80428491	0.82288737	-0.10531379	0.54189756	0.76270784	0.36944245
330	1.316	0.12450695	-0.033164653	0.019716592	0.99303916	0.040339522	0.11523243	0.1045427	0.12006317	-0.055790178	0.84514165	0.05245622	0.14955949	0.13465143	0.11454332	0.037078334	0.85219129	0.090783208	0.058033818	0.047791947	0.1635964	-0.012676807	0.77598695	0.031489243	0.10111191	0.43438706	0.38274194	-0.086456226	0.84661763	0.50402574	0.20753878	0.43247667	0.3690015	0.043691156	0.83377636	0.4913464	0.082584066	0.53860367	0.77705167	-0.090603693	0.59289669	0.81902464	0.27815	0.64427824	0.85370641	-0.048475351	0.65748705	0.89344573	0.19157938	0.4872997	0.93610707	0.079073883	0.6782285	1.3241057	-0.085197533	0.63131284	1.3345758	0.24075792	0.58283676	1.3798448	0.067965117	0.57784237	0.95952382	-0.15054267	0.462448	1.0148438	0.30922989	0.80813703	0.82138825	-0.10535061	0.55043898	0.76346381	0.36942689
